<?xml version="1.0" encoding="UTF-8"?>
<svg width="100" height="100" viewBox="0 0 100 100" xmlns="http://www.w3.org/2000/svg">
    <path d="M50,20 C30,20 20,35 20,50 C20,65 30,80 50,80 C70,80 80,65 80,50 C80,35 70,20 50,20" fill="white" stroke="black" stroke-width="2"/>
    <circle cx="40" cy="45" r="3" fill="black"/> <!-- Left eye -->
    <circle cx="60" cy="45" r="3" fill="black"/> <!-- Right eye -->
    <path d="M45,55 C45,60 55,60 55,55" fill="none" stroke="black" stroke-width="2"/> <!-- Smile -->
    <ellipse cx="50" cy="52" rx="5" ry="3" fill="black"/> <!-- Nose -->
    <path d="M30,35 C25,30 20,35 25,40" fill="white" stroke="black" stroke-width="2"/> <!-- Left ear -->
    <path d="M70,35 C75,30 80,35 75,40" fill="white" stroke="black" stroke-width="2"/> <!-- Right ear -->
</svg>
